# This file uses centimeters as units for non-parametric coordinates.

mtllib pantalla.mtl
v -6.387098 7.075567 8.446324
v -5.658361 7.075567 8.621278
v -4.921465 7.075567 8.757854
v -4.178432 7.075567 8.855676
v -3.431297 7.075567 8.914477
v -2.682109 7.075567 8.934095
v -1.932920 7.075567 8.914477
v -1.185786 7.075567 8.855676
v -0.442752 7.075567 8.757854
v 0.294144 7.075567 8.621278
v 1.022882 7.075567 8.446324
v -6.387098 2.443114 8.446324
v -5.658361 2.443114 8.621278
v -4.921465 2.443114 8.757854
v -4.178432 2.443114 8.855676
v -3.431297 2.443114 8.914477
v -2.682109 2.443114 8.934095
v -1.932920 2.443114 8.914477
v -1.185786 2.443114 8.855676
v -0.442752 2.443114 8.757854
v 0.294144 2.443114 8.621278
v 1.022882 2.443114 8.446324
vt 0.000000 0.000000
vt 0.100000 0.000000
vt 0.100000 0.618047
vt 0.000000 0.618047
vt 0.200000 0.000000
vt 0.200000 0.618047
vt 0.300000 0.000000
vt 0.300000 0.618047
vt 0.400000 0.000000
vt 0.400000 0.618047
vt 0.500000 0.000000
vt 0.500000 0.618047
vt 0.600000 0.000000
vt 0.600000 0.618047
vt 0.700000 0.000000
vt 0.700000 0.618047
vt 0.800000 0.000000
vt 0.800000 0.618047
vt 0.900000 0.000000
vt 0.900000 0.618047
vt 1.000000 0.000000
vt 1.000000 0.618047
vn 0.233445 -0.000000 -0.972370
vn 0.207912 -0.000000 -0.978148
vn 0.207912 -0.000000 -0.978148
vn 0.233445 -0.000000 -0.972370
vn 0.156435 -0.000000 -0.987688
vn 0.156435 -0.000000 -0.987688
vn 0.104528 -0.000000 -0.994522
vn 0.104528 -0.000000 -0.994522
vn 0.052336 -0.000000 -0.998630
vn 0.052336 -0.000000 -0.998630
vn 0.000000 -0.000000 -1.000000
vn 0.000000 -0.000000 -1.000000
vn -0.052336 -0.000000 -0.998630
vn -0.052336 -0.000000 -0.998630
vn -0.104528 -0.000000 -0.994522
vn -0.104528 -0.000000 -0.994522
vn -0.156435 -0.000000 -0.987688
vn -0.156435 -0.000000 -0.987688
vn -0.207912 -0.000000 -0.978148
vn -0.207912 -0.000000 -0.978148
vn -0.233445 -0.000000 -0.972370
vn -0.233445 -0.000000 -0.972370
usemtl initialShadingGroup
f 1/1/1 2/2/2 13/3/3 12/4/4
f 2/2/2 3/5/5 14/6/6 13/3/3
f 3/5/5 4/7/7 15/8/8 14/6/6
f 4/7/7 5/9/9 16/10/10 15/8/8
f 5/9/9 6/11/11 17/12/12 16/10/10
f 6/11/11 7/13/13 18/14/14 17/12/12
f 7/13/13 8/15/15 19/16/16 18/14/14
f 8/15/15 9/17/17 20/18/18 19/16/16
f 9/17/17 10/19/19 21/20/20 20/18/18
f 10/19/19 11/21/21 22/22/22 21/20/20
